<svg width="171" height="54" viewBox="0 0 171 54" fill="none" xmlns="http://www.w3.org/2000/svg">
<path d="M110.93 9.20974H99.6943V6.97881C99.6943 5.20377 98.9841 3.50143 97.7199 2.24629C96.4557 0.991143 94.741 0.286011 92.9531 0.286011H79.4707C77.6828 0.286011 75.9682 0.991143 74.7039 2.24629C73.4397 3.50143 72.7295 5.20377 72.7295 6.97881V9.20974H61.4941C60.3022 9.20974 59.1591 9.67983 58.3163 10.5166C57.4735 11.3534 57 12.4882 57 13.6716V49.3665C57 50.5499 57.4735 51.6848 58.3163 52.5215C59.1591 53.3583 60.3022 53.8284 61.4941 53.8284H110.93C112.122 53.8284 113.265 53.3583 114.108 52.5215C114.95 51.6848 115.424 50.5499 115.424 49.3665V13.6716C115.424 12.4882 114.95 11.3534 114.108 10.5166C113.265 9.67983 112.122 9.20974 110.93 9.20974ZM77.2236 6.97881C77.2236 6.38713 77.4604 5.81968 77.8818 5.4013C78.3032 4.98292 78.8747 4.74788 79.4707 4.74788H92.9531C93.5491 4.74788 94.1206 4.98292 94.542 5.4013C94.9635 5.81968 95.2002 6.38713 95.2002 6.97881V9.20974H77.2236V6.97881ZM110.93 13.6716V27.5H61.4941V13.6716H110.93Z" fill="#0A91AB"/>
<path d="M125.276 52.3801C123.76 52.3801 122.638 50.9694 122.979 49.4919L125.851 37.0609C126.082 36.0589 126.975 35.3491 128.003 35.3491H129.067C129.885 35.3491 130.505 36.0881 130.363 36.8941L129.901 39.5115C129.879 39.6354 129.721 39.6743 129.644 39.5746C129.619 39.5417 129.609 39.4995 129.617 39.4589C129.795 38.5747 130.103 37.8124 130.54 37.1722C131.004 36.5165 131.555 36.0128 132.195 35.661C132.851 35.2932 133.546 35.1093 134.282 35.1093C135.018 35.1093 135.665 35.2852 136.225 35.637C136.785 35.9728 137.216 36.4845 137.52 37.1722C137.84 37.8438 138 38.6914 138 39.7148C138 40.6583 137.872 41.6018 137.616 42.5453C137.36 43.4728 136.984 44.3204 136.489 45.088C136.009 45.8396 135.433 46.4472 134.762 46.911C134.09 47.3588 133.33 47.5826 132.483 47.5826C131.891 47.5826 131.307 47.4707 130.732 47.2468C130.172 47.0229 129.7 46.6471 129.317 46.1194C128.954 45.5989 128.77 44.8996 128.765 44.0213C128.765 43.9973 128.771 43.9734 128.782 43.9522C128.863 43.8024 129.091 43.8878 129.053 44.0536L127.366 51.4671C127.244 52.0012 126.769 52.3801 126.221 52.3801H125.276ZM130.924 44.1045C131.307 44.1045 131.635 43.9766 131.907 43.7207C132.195 43.4648 132.435 43.145 132.627 42.7612C132.819 42.3774 132.963 41.9696 133.059 41.5378C133.17 41.1061 133.226 40.7143 133.226 40.3625C133.226 39.9947 133.17 39.6828 133.059 39.427C132.963 39.1551 132.803 38.9472 132.579 38.8033C132.371 38.6594 132.107 38.5874 131.787 38.5874C131.451 38.5874 131.14 38.7073 130.852 38.9472C130.58 39.1871 130.34 39.5069 130.132 39.9067C129.94 40.2905 129.796 40.7063 129.7 41.154C129.604 41.5858 129.556 42.0096 129.556 42.4254C129.556 42.9371 129.668 43.3449 129.892 43.6487C130.132 43.9526 130.476 44.1045 130.924 44.1045Z" fill="#FFC045"/>
<path d="M110.85 47.5826C109.619 47.5826 108.547 47.3508 107.636 46.887C106.724 46.4073 106.013 45.7596 105.501 44.944C105.005 44.1125 104.757 43.169 104.757 42.1135C104.757 40.8502 105.029 39.6908 105.573 38.6354C106.117 37.564 106.908 36.7084 107.948 36.0687C109.003 35.4291 110.298 35.1093 111.834 35.1093C113.081 35.1093 114.16 35.3491 115.072 35.8289C115.983 36.2926 116.687 36.9323 117.183 37.7479C117.694 38.5634 117.95 39.4989 117.95 40.5544C117.95 41.8177 117.678 42.9851 117.135 44.0565C116.591 45.1279 115.791 45.9835 114.736 46.6231C113.697 47.2628 112.401 47.5826 110.85 47.5826ZM110.922 44.2724C111.274 44.2724 111.586 44.1365 111.858 43.8646C112.145 43.5928 112.385 43.2409 112.577 42.8092C112.785 42.3774 112.937 41.9216 113.033 41.4419C113.145 40.9621 113.201 40.5144 113.201 40.0986C113.201 39.7148 113.145 39.403 113.033 39.1631C112.921 38.9232 112.753 38.7393 112.529 38.6114C112.321 38.4835 112.065 38.4195 111.762 38.4195C111.41 38.4195 111.09 38.5554 110.802 38.8273C110.53 39.0991 110.29 39.451 110.083 39.8827C109.891 40.3145 109.739 40.7703 109.627 41.25C109.515 41.7297 109.459 42.1775 109.459 42.5933C109.459 42.9611 109.515 43.2729 109.627 43.5288C109.755 43.7687 109.923 43.9526 110.13 44.0805C110.354 44.2084 110.618 44.2724 110.922 44.2724Z" fill="#FFC045"/>
<path d="M86.9837 47.3429C85.4672 47.3429 84.345 45.932 84.6862 44.4544L87.5066 32.2383C87.754 31.1668 88.7081 30.4078 89.8078 30.4078C91.326 30.4078 92.4498 31.8196 92.1095 33.2991L90.9793 38.2114C90.9769 38.2222 90.9727 38.2325 90.9669 38.2419C90.9044 38.345 90.777 38.2857 90.8243 38.1748C90.9936 37.7785 91.2039 37.4043 91.4553 37.0523C91.8551 36.4766 92.3669 36.0129 92.9905 35.6611C93.6302 35.2932 94.3818 35.1093 95.2453 35.1093C95.9969 35.1093 96.6446 35.2932 97.1883 35.6611C97.732 36.0129 98.1078 36.5166 98.3157 37.1722C98.5396 37.8119 98.5556 38.5715 98.3637 39.451L96.9424 45.5239C96.693 46.5894 95.7428 47.3429 94.6486 47.3429C93.1285 47.3429 92.0064 45.9246 92.3559 44.4453L93.3263 40.3386C93.4383 39.8428 93.3983 39.451 93.2064 39.1632C93.0145 38.8753 92.6947 38.7314 92.2469 38.7314C91.9271 38.7314 91.6392 38.8114 91.3834 38.9713C91.1435 39.1312 90.9356 39.3631 90.7597 39.6669C90.5998 39.9708 90.4639 40.3546 90.3519 40.8183L89.2827 45.5089C89.0382 46.5818 88.0841 47.3429 86.9837 47.3429Z" fill="#FFC045"/>
<path d="M72.633 47.5826C71.7854 47.5826 70.9459 47.4707 70.1143 47.2468C69.2828 47.0229 68.5152 46.7031 67.8116 46.2873C67.5267 46.119 67.2628 45.9349 67.0198 45.7351C66.4149 45.2376 66.4904 44.3419 67.0412 43.7851C67.7165 43.1026 68.8432 43.188 69.6474 43.7126C69.7669 43.7906 69.8906 43.8652 70.0184 43.9366C70.706 44.3204 71.3777 44.5123 72.0333 44.5123C72.4171 44.5123 72.705 44.4643 72.8969 44.3683C73.1048 44.2564 73.2087 44.0965 73.2087 43.8886C73.2087 43.7287 73.1447 43.5848 73.0168 43.4568C72.9049 43.3289 72.705 43.2329 72.4171 43.169L71.2178 42.7612C69.9384 42.3614 69.0349 41.8817 68.5072 41.322C67.9795 40.7463 67.7156 40.0187 67.7156 39.1391C67.7156 38.2756 67.9475 37.548 68.4112 36.9563C68.875 36.3486 69.5147 35.8928 70.3302 35.589C71.1458 35.2692 72.0813 35.1093 73.1367 35.1093C74.4161 35.1093 75.5515 35.3171 76.5429 35.7329C77.0808 35.9549 77.564 36.2179 77.9924 36.5219C78.6166 36.9648 78.6106 37.8434 78.1053 38.4183L77.7261 38.8499C77.2976 39.3374 76.5176 39.3152 75.9672 38.9712C75.5994 38.7313 75.1916 38.5394 74.7439 38.3955C74.2961 38.2516 73.8484 38.1796 73.4006 38.1796C73.0488 38.1796 72.7849 38.2356 72.609 38.3475C72.4491 38.4435 72.3691 38.5874 72.3691 38.7793C72.3691 38.9552 72.4411 39.0991 72.585 39.2111C72.7449 39.307 72.9448 39.387 73.1847 39.451L75.3915 40.1706C76.2551 40.4264 76.9187 40.8262 77.3825 41.3699C77.8462 41.9136 78.0781 42.5773 78.0781 43.3609C78.0781 44.2244 77.8622 44.976 77.4305 45.6157C76.9987 46.2394 76.375 46.7271 75.5594 47.0789C74.7599 47.4147 73.7844 47.5826 72.633 47.5826Z" fill="#FFC045"/>
<path d="M51.0578 47.5827C50.3222 47.5827 49.6506 47.4068 49.0429 47.055C48.4352 46.7032 47.9555 46.1835 47.6036 45.4958C47.2518 44.8082 47.0759 43.9527 47.0759 42.9292C47.0759 41.9697 47.2119 41.0262 47.4837 40.0987C47.7556 39.1712 48.1394 38.3316 48.6351 37.58C49.1468 36.8284 49.7625 36.2287 50.4821 35.781C51.2017 35.3332 52.0253 35.1093 52.9528 35.1093C53.4166 35.1093 53.8723 35.1973 54.3201 35.3732C54.7838 35.5491 55.1836 35.829 55.5194 36.2128C55.7768 36.4935 56.5234 36.4583 56.609 36.0871L57.686 31.4152C57.8219 30.8255 58.3468 30.4078 58.9519 30.4078H59.7963C61.3143 30.4078 62.4376 31.82 62.0961 33.2991L59.2505 45.6241C59.0182 46.6302 58.1223 47.3429 57.0897 47.3429H54.7887C54.607 47.3429 54.4694 47.1785 54.5014 46.9996C54.5606 46.6692 53.9099 46.393 53.6552 46.6116C53.5305 46.7186 53.4003 46.8184 53.2646 46.9111C52.609 47.3588 51.8734 47.5827 51.0578 47.5827ZM53.3126 44.1046C53.6484 44.1046 53.9523 43.9846 54.2241 43.7448C54.512 43.5049 54.7519 43.1931 54.9438 42.8093C55.1357 42.4095 55.2796 41.9857 55.3755 41.5379C55.4875 41.0902 55.5434 40.6664 55.5434 40.2666C55.5434 39.9148 55.4875 39.619 55.3755 39.3791C55.2636 39.1232 55.1037 38.9313 54.8958 38.8034C54.7039 38.6595 54.464 38.5875 54.1762 38.5875C53.7924 38.5875 53.4565 38.7154 53.1687 38.9713C52.8808 39.2272 52.641 39.547 52.4491 39.9308C52.2572 40.3146 52.1133 40.7224 52.0173 41.1541C51.9214 41.5859 51.8734 41.9697 51.8734 42.3055C51.8734 42.6733 51.9214 42.9932 52.0173 43.265C52.1292 43.5369 52.2892 43.7448 52.4971 43.8887C52.7049 44.0326 52.9768 44.1046 53.3126 44.1046Z" fill="#FFC045"/>
<path d="M39.685 34.2937C38.8694 34.2937 38.2378 34.1338 37.79 33.814C37.3582 33.4941 37.1903 32.9744 37.2863 32.2548C37.3982 31.4232 37.686 30.8396 38.1498 30.5037C38.6136 30.1679 39.2852 30 40.1647 30C40.9963 30 41.628 30.1679 42.0597 30.5037C42.5075 30.8236 42.6834 31.3193 42.5874 31.9909C42.4755 32.8865 42.1797 33.4941 41.6999 33.814C41.2202 34.1338 40.5485 34.2937 39.685 34.2937ZM38.6577 35.3492C40.1765 35.3492 41.2999 36.763 40.9567 38.2426L39.2692 45.5161C39.0211 46.5857 38.0682 47.3428 36.9702 47.3428C35.4514 47.3428 34.328 45.9289 34.6713 44.4494L36.3587 37.1758C36.6069 36.1063 37.5598 35.3492 38.6577 35.3492Z" fill="#FFC045"/>
</svg>
